name analog
datacolumns 19
datarows 73
range 0.422 0.458
endheader
time	ground_force_vx	ground_force_vy	ground_force_vz	ground_force_px	ground_force_py	ground_force_pz	l_ground_force_vx	l_ground_force_vy	l_ground_force_vz	l_ground_force_px	l_ground_force_py	l_ground_force_pz	ground_torque_x	ground_torque_y	ground_torque_z	l_ground_torque_x	l_ground_torque_y	l_ground_torque_z
0.422	-0.0	-0.0	-0.0	4.842817306518555	-4.956736087799072	-590.7330322265625	-0.0	-0.0	-0.0	-0.0	-0.0	-0.0	-0.0	-0.0	-0.0	-0.0	-0.0	-0.0
0.4225	-0.0	-0.0	-0.0	5.347431659698486	-5.0458197593688965	-590.811767578125	-0.0	-0.0	-0.0	-0.0	-0.0	-0.0	-0.0	-0.0	-0.0	-0.0	-0.0	-0.0
0.423	-0.0	-0.0	-0.0	5.625046730041504	-4.5306925773620605	-591.8323974609375	-0.0	-0.0	-0.0	-0.0	-0.0	-0.0	-0.0	-0.0	-0.0	-0.0	-0.0	-0.0
0.4235	-0.0	-0.0	-0.0	5.2331085205078125	-4.228359699249268	-590.81005859375	-0.0	-0.0	-0.0	-0.0	-0.0	-0.0	-0.0	-0.0	-0.0	-0.0	-0.0	-0.0
0.424	-0.0	-0.0	-0.0	5.259178638458252	-3.084759473800659	-589.1478881835938	-0.0	-0.0	-0.0	-0.0	-0.0	-0.0	-0.0	-0.0	-0.0	-0.0	-0.0	-0.0
0.4245	-0.0	-0.0	-0.0	4.922123908996582	-1.7632524967193604	-586.8468017578125	-0.0	-0.0	-0.0	-0.0	-0.0	-0.0	-0.0	-0.0	-0.0	-0.0	-0.0	-0.0
0.425	-0.0	-0.0	-0.0	4.654633522033691	-0.8720424175262451	-585.80126953125	-0.0	-0.0	-0.0	-0.0	-0.0	-0.0	-0.0	-0.0	-0.0	-0.0	-0.0	-0.0
0.4255	-0.0	-0.0	-0.0	3.444174289703369	-0.2673912048339844	-583.8822631835938	-0.0	-0.0	-0.0	-0.0	-0.0	-0.0	-0.0	-0.0	-0.0	-0.0	-0.0	-0.0
0.426	-0.0	-0.0	-0.0	2.762655973434448	0.4077059626579284	-582.4689331054688	-0.0	-0.0	-0.0	-0.0	-0.0	-0.0	-0.0	-0.0	-0.0	-0.0	-0.0	-0.0
0.4265	-0.0	-0.0	-0.0	1.7301565408706665	0.3402760028839111	-584.0847778320312	-0.0	-0.0	-0.0	-0.0	-0.0	-0.0	-0.0	-0.0	-0.0	-0.0	-0.0	-0.0
0.427	-0.0	-0.0	-0.0	0.0	0.7504715919494629	-585.7119140625	-0.0	-0.0	-0.0	-0.0	-0.0	-0.0	-0.0	-0.0	-0.0	-0.0	-0.0	-0.0
0.4275	-0.0	-0.0	-0.0	-1.033310055732727	0.4809215366840362	-585.2191162109375	-0.0	-0.0	-0.0	-0.0	-0.0	-0.0	-0.0	-0.0	-0.0	-0.0	-0.0	-0.0
0.428	-0.0	-0.0	-0.0	-2.0148138999938965	-0.3733407855033874	-586.985107421875	-0.0	-0.0	-0.0	-0.0	-0.0	-0.0	-0.0	-0.0	-0.0	-0.0	-0.0	-0.0
0.4285	-0.0	-0.0	-0.0	-2.01641058921814	-1.1036999225616455	-588.9688720703125	-0.0	-0.0	-0.0	-0.0	-0.0	-0.0	-0.0	-0.0	-0.0	-0.0	-0.0	-0.0
0.429	-0.0	-0.0	-0.0	-2.051841735839844	-1.9973453283309937	-592.7000732421875	-0.0	-0.0	-0.0	-0.0	-0.0	-0.0	-0.0	-0.0	-0.0	-0.0	-0.0	-0.0
0.4295	-0.0	-0.0	-0.0	-1.8371907472610476	-2.531848669052124	-593.8389282226562	-0.0	-0.0	-0.0	-0.0	-0.0	-0.0	-0.0	-0.0	-0.0	-0.0	-0.0	-0.0
0.43	-0.0	-0.0	-0.0	-1.5518895387649536	-3.1727936267852783	-596.7318115234375	-0.0	-0.0	-0.0	-0.0	-0.0	-0.0	-0.0	-0.0	-0.0	-0.0	-0.0	-0.0
0.4305	-0.0	-0.0	-0.0	-0.9278501272201538	-3.743476867675781	-598.00439453125	-0.0	-0.0	-0.0	-0.0	-0.0	-0.0	-0.0	-0.0	-0.0	-0.0	-0.0	-0.0
0.431	-0.0	-0.0	-0.0	-0.9813156127929688	-3.796887636184693	-601.3939819335938	-0.0	-0.0	-0.0	-0.0	-0.0	-0.0	-0.0	-0.0	-0.0	-0.0	-0.0	-0.0
0.4315	-0.0	-0.0	-0.0	-0.4629906713962555	-3.7792580127716064	-602.0970458984375	-0.0	-0.0	-0.0	-0.0	-0.0	-0.0	-0.0	-0.0	-0.0	-0.0	-0.0	-0.0
0.432	-0.0	-0.0	-0.0	0.0533500760793685	-3.6001639366149902	-605.423095703125	-0.0	-0.0	-0.0	-0.0	-0.0	-0.0	-0.0	-0.0	-0.0	-0.0	-0.0	-0.0
0.4325	-0.0	-0.0	-0.0	0.4447571337223053	-2.9599058628082275	-607.0426025390625	-0.0	-0.0	-0.0	-0.0	-0.0	-0.0	-0.0	-0.0	-0.0	-0.0	-0.0	-0.0
0.433	-0.0	-0.0	-0.0	0.8937078714370728	-2.4253077507019043	-606.9057006835938	-0.0	-0.0	-0.0	-0.0	-0.0	-0.0	-0.0	-0.0	-0.0	-0.0	-0.0	-0.0
0.4335	-0.0	-0.0	-0.0	1.0003036260604858	-1.3009222745895386	-608.6718139648438	-0.0	-0.0	-0.0	-0.0	-0.0	-0.0	-0.0	-0.0	-0.0	-0.0	-0.0	-0.0
0.434	-0.0	-0.0	-0.0	1.5696547031402588	-1.0842418670654297	-609.731689453125	-0.0	-0.0	-0.0	-0.0	-0.0	-0.0	-0.0	-0.0	-0.0	-0.0	-0.0	-0.0
0.4345	-0.0	-0.0	-0.0	1.7286956310272217	-0.6625446081161499	-610.991455078125	-0.0	-0.0	-0.0	-0.0	-0.0	-0.0	-0.0	-0.0	-0.0	-0.0	-0.0	-0.0
0.435	-0.0	-0.0	-0.0	1.8567384481430051	0.1253619492053985	-612.060791015625	-0.0	-0.0	-0.0	-0.0	-0.0	-0.0	-0.0	-0.0	-0.0	-0.0	-0.0	-0.0
0.4355	-0.0	-0.0	-0.0	2.071607828140259	0.3565216064453125	-610.5170288085938	-0.0	-0.0	-0.0	-0.0	-0.0	-0.0	-0.0	-0.0	-0.0	-0.0	-0.0	-0.0
0.436	-0.0	-0.0	-0.0	2.976877212524414	0.8385136127471924	-610.5829467773438	-0.0	-0.0	-0.0	-0.0	-0.0	-0.0	-0.0	-0.0	-0.0	-0.0	-0.0	-0.0
0.4365	-0.0	-0.0	-0.0	3.430311441421509	1.4423712491989136	-609.7481689453125	-0.0	-0.0	-0.0	-0.0	-0.0	-0.0	-0.0	-0.0	-0.0	-0.0	-0.0	-0.0
0.437	-0.0	-0.0	-0.0	4.050975799560547	2.244450807571411	-610.1504516601562	-0.0	-0.0	-0.0	-0.0	-0.0	-0.0	-0.0	-0.0	-0.0	-0.0	-0.0	-0.0
0.4375	-0.0	-0.0	-0.0	4.554178714752197	2.301339864730835	-608.7198486328125	-0.0	-0.0	-0.0	-0.0	-0.0	-0.0	-0.0	-0.0	-0.0	-0.0	-0.0	-0.0
0.438	-0.0	-0.0	-0.0	4.627841949462891	2.989011764526367	-609.7337036132812	-0.0	-0.0	-0.0	-0.0	-0.0	-0.0	-0.0	-0.0	-0.0	-0.0	-0.0	-0.0
0.4385	-0.0	-0.0	-0.0	5.200808048248291	3.135372877120972	-609.007568359375	-0.0	-0.0	-0.0	-0.0	-0.0	-0.0	-0.0	-0.0	-0.0	-0.0	-0.0	-0.0
0.439	-0.0	-0.0	-0.0	5.64138126373291	3.5597591400146484	-609.2353515625	-0.0	-0.0	-0.0	-0.0	-0.0	-0.0	-0.0	-0.0	-0.0	-0.0	-0.0	-0.0
0.4395	-0.0	-0.0	-0.0	6.118687629699707	3.900453805923462	-610.962646484375	-0.0	-0.0	-0.0	-0.0	-0.0	-0.0	-0.0	-0.0	-0.0	-0.0	-0.0	-0.0
0.44	-0.0	-0.0	-0.0	6.869209289550781	4.373386383056641	-610.0266723632812	-0.0	-0.0	-0.0	-0.0	-0.0	-0.0	-0.0	-0.0	-0.0	-0.0	-0.0	-0.0
0.4405	-0.0	-0.0	-0.0	7.678520679473877	4.865237712860107	-611.9398803710938	-0.0	-0.0	-0.0	-0.0	-0.0	-0.0	-0.0	-0.0	-0.0	-0.0	-0.0	-0.0
0.441	-0.0	-0.0	-0.0	8.340241432189941	5.073788642883301	-612.4215087890625	-0.0	-0.0	-0.0	-0.0	-0.0	-0.0	-0.0	-0.0	-0.0	-0.0	-0.0	-0.0
0.4415	-0.0	-0.0	-0.0	8.54916763305664	5.734401702880859	-613.620361328125	-0.0	-0.0	-0.0	-0.0	-0.0	-0.0	-0.0	-0.0	-0.0	-0.0	-0.0	-0.0
0.442	-0.0	-0.0	-0.0	9.196053504943848	6.135117053985596	-614.356201171875	-0.0	-0.0	-0.0	-0.0	-0.0	-0.0	-0.0	-0.0	-0.0	-0.0	-0.0	-0.0
0.4425	-0.0	-0.0	-0.0	10.028782844543455	6.90021276473999	-612.5613403320312	-0.0	-0.0	-0.0	-0.0	-0.0	-0.0	-0.0	-0.0	-0.0	-0.0	-0.0	-0.0
0.443	-0.0	-0.0	-0.0	10.437629699707031	7.070544242858887	-610.3528442382812	-0.0	-0.0	-0.0	-0.0	-0.0	-0.0	-0.0	-0.0	-0.0	-0.0	-0.0	-0.0
0.4435	-0.0	-0.0	-0.0	10.823495864868164	7.5594482421875	-612.00341796875	-0.0	-0.0	-0.0	-0.0	-0.0	-0.0	-0.0	-0.0	-0.0	-0.0	-0.0	-0.0
0.444	-0.0	-0.0	-0.0	11.17429256439209	7.901095390319824	-608.0045776367188	-0.0	-0.0	-0.0	-0.0	-0.0	-0.0	-0.0	-0.0	-0.0	-0.0	-0.0	-0.0
0.4445	-0.0	-0.0	-0.0	11.930981636047363	7.90939998626709	-609.2353515625	-0.0	-0.0	-0.0	-0.0	-0.0	-0.0	-0.0	-0.0	-0.0	-0.0	-0.0	-0.0
0.445	-0.0	-0.0	-0.0	12.029260635375977	8.63644790649414	-607.376953125	-0.0	-0.0	-0.0	-0.0	-0.0	-0.0	-0.0	-0.0	-0.0	-0.0	-0.0	-0.0
0.4455	-0.0	-0.0	-0.0	11.954208374023438	8.922592163085938	-609.0865478515625	-0.0	-0.0	-0.0	-0.0	-0.0	-0.0	-0.0	-0.0	-0.0	-0.0	-0.0	-0.0
0.446	-0.0	-0.0	-0.0	12.644092559814451	9.039806365966797	-608.2151489257812	-0.0	-0.0	-0.0	-0.0	-0.0	-0.0	-0.0	-0.0	-0.0	-0.0	-0.0	-0.0
0.4465	-0.0	-0.0	-0.0	12.719386100769045	8.748543739318848	-608.5692749023438	-0.0	-0.0	-0.0	-0.0	-0.0	-0.0	-0.0	-0.0	-0.0	-0.0	-0.0	-0.0
0.447	-0.0	-0.0	-0.0	13.162322998046877	9.094330787658691	-609.2473754882812	-0.0	-0.0	-0.0	-0.0	-0.0	-0.0	-0.0	-0.0	-0.0	-0.0	-0.0	-0.0
0.4475	-0.0	-0.0	-0.0	13.049107551574709	8.837386131286621	-608.7857055664062	-0.0	-0.0	-0.0	-0.0	-0.0	-0.0	-0.0	-0.0	-0.0	-0.0	-0.0	-0.0
0.448	-0.0	-0.0	-0.0	13.316880226135254	8.529754638671875	-611.1514282226562	-0.0	-0.0	-0.0	-0.0	-0.0	-0.0	-0.0	-0.0	-0.0	-0.0	-0.0	-0.0
0.4485	-0.0	-0.0	-0.0	14.59253215789795	8.455863952636719	-610.5433959960938	-0.0	-0.0	-0.0	-0.0	-0.0	-0.0	-0.0	-0.0	-0.0	-0.0	-0.0	-0.0
0.449	-0.0	-0.0	-0.0	15.153945922851562	7.804193019866943	-611.65576171875	-0.0	-0.0	-0.0	-0.0	-0.0	-0.0	-0.0	-0.0	-0.0	-0.0	-0.0	-0.0
0.4495	-0.0	-0.0	-0.0	15.649953842163086	7.449703216552734	-614.22802734375	-0.0	-0.0	-0.0	-0.0	-0.0	-0.0	-0.0	-0.0	-0.0	-0.0	-0.0	-0.0
0.45	-0.0	-0.0	-0.0	16.13425636291504	7.4744768142700195	-614.2802124023438	-0.0	-0.0	-0.0	-0.0	-0.0	-0.0	-0.0	-0.0	-0.0	-0.0	-0.0	-0.0
0.4505	-0.0	-0.0	-0.0	16.18536376953125	6.939462661743164	-615.03759765625	-0.0	-0.0	-0.0	-0.0	-0.0	-0.0	-0.0	-0.0	-0.0	-0.0	-0.0	-0.0
0.451	-0.0	-0.0	-0.0	15.930370330810549	6.188274383544922	-615.5926513671875	-0.0	-0.0	-0.0	-0.0	-0.0	-0.0	-0.0	-0.0	-0.0	-0.0	-0.0	-0.0
0.4515	-0.0	-0.0	-0.0	15.484256744384766	6.365622520446777	-616.4470825195312	-0.0	-0.0	-0.0	-0.0	-0.0	-0.0	-0.0	-0.0	-0.0	-0.0	-0.0	-0.0
0.452	-0.0	-0.0	-0.0	14.758153915405272	5.526084899902344	-617.0595092773438	-0.0	-0.0	-0.0	-0.0	-0.0	-0.0	-0.0	-0.0	-0.0	-0.0	-0.0	-0.0
0.4525	-0.0	-0.0	-0.0	14.515016555786133	5.384409427642822	-614.9495239257812	-0.0	-0.0	-0.0	-0.0	-0.0	-0.0	-0.0	-0.0	-0.0	-0.0	-0.0	-0.0
0.453	-0.0	-0.0	-0.0	13.523748397827148	4.813041687011719	-616.5951538085938	-0.0	-0.0	-0.0	-0.0	-0.0	-0.0	-0.0	-0.0	-0.0	-0.0	-0.0	-0.0
0.4535	-0.0	-0.0	-0.0	13.03669261932373	4.632032871246338	-618.3233642578125	-0.0	-0.0	-0.0	-0.0	-0.0	-0.0	-0.0	-0.0	-0.0	-0.0	-0.0	-0.0
0.454	-0.0	-0.0	-0.0	12.18636703491211	4.145091533660889	-621.7498779296875	-0.0	-0.0	-0.0	-0.0	-0.0	-0.0	-0.0	-0.0	-0.0	-0.0	-0.0	-0.0
0.4545	-0.0	-0.0	-0.0	11.042187690734863	4.162144184112549	-621.935791015625	-0.0	-0.0	-0.0	-0.0	-0.0	-0.0	-0.0	-0.0	-0.0	-0.0	-0.0	-0.0
0.455	-0.0	-0.0	-0.0	10.542531967163086	4.111553192138672	-623.4083862304688	-0.0	-0.0	-0.0	-0.0	-0.0	-0.0	-0.0	-0.0	-0.0	-0.0	-0.0	-0.0
0.4555	-0.0	-0.0	-0.0	9.941250801086426	4.467952728271484	-622.5928955078125	-0.0	-0.0	-0.0	-0.0	-0.0	-0.0	-0.0	-0.0	-0.0	-0.0	-0.0	-0.0
0.456	-0.0	-0.0	-0.0	9.25031280517578	4.27825927734375	-622.5469970703125	-0.0	-0.0	-0.0	-0.0	-0.0	-0.0	-0.0	-0.0	-0.0	-0.0	-0.0	-0.0
0.4565	-0.0	-0.0	-0.0	8.51401138305664	4.657128810882568	-622.368896484375	-0.0	-0.0	-0.0	-0.0	-0.0	-0.0	-0.0	-0.0	-0.0	-0.0	-0.0	-0.0
0.457	-0.0	-0.0	-0.0	7.482621669769287	4.946377277374268	-623.3392333984375	-0.0	-0.0	-0.0	-0.0	-0.0	-0.0	-0.0	-0.0	-0.0	-0.0	-0.0	-0.0
0.4575	-0.0	-0.0	-0.0	6.740861892700195	5.1304612159729	-624.4653930664062	-0.0	-0.0	-0.0	-0.0	-0.0	-0.0	-0.0	-0.0	-0.0	-0.0	-0.0	-0.0
0.458	-0.0	-0.0	-0.0	6.383952617645264	5.386992931365967	-621.3289794921875	-0.0	-0.0	-0.0	-0.0	-0.0	-0.0	-0.0	-0.0	-0.0	-0.0	-0.0	-0.0
